<svg xmlns="http://www.w3.org/2000/svg" version="1.1" xmlns:xlink="http://www.w3.org/1999/xlink" width="512" height="512" x="0" y="0" viewBox="0 0 478.792 478.792" style="enable-background:new 0 0 512 512" xml:space="preserve" class=""><g><path d="M283.285 283.386h-87.6c-5.5 0-10 4.5-10 10s4.5 10 10 10h87.6c5.5 0 10-4.5 10-10s-4.5-10-10-10zM324.985 324.386h-171c-5.5 0-10 4.5-10 10s4.5 10 10 10h171c5.5 0 10-4.5 10-10s-4.5-10-10-10zM324.985 366.386h-171c-5.5 0-10 4.5-10 10s4.5 10 10 10h171c5.5 0 10-4.5 10-10s-4.5-10-10-10zM269.385 125.386h-8.4c-.6-2-1.3-4.1-2.2-6h10.5c5.5 0 10-4.5 10-10s-4.5-10-10-10h-59.5c-5.5 0-10 4.5-10 10s4.5 10 10 10h17c4.8 0 9.1 3 11.9 6h-29c-5.5 0-10 4.5-10 10s4.5 10 10 10h28.9c-.2 0-.5.9-.9 1.2-2.9 3-6.8 4.7-11 4.8h-17c-5.4-.1-9.9 4.1-10 9.5-.1 2.8 1.1 5.5 3.1 7.4l42.7 40.2c4 3.8 10.4 3.6 14.2-.4 3.8-4 3.6-10.4-.4-14.2l-25.1-23.7c6.7-1.4 12.9-4.8 17.8-9.6 4.3-4.2 7.4-9.4 9-15.2h8.4c5.5 0 10-4.5 10-10s-4.5-10-10-10z" fill="#000000" opacity="1" data-original="#000000" class=""></path><path d="M386.285.686c-3.8-1.5-8.1-.5-10.9 2.6l-21.3 23.3-21.3-23.2c-3.7-4.1-10-4.3-14.1-.6l-.6.6-21.3 23.2-21.3-23.3c-3.7-4.1-10.1-4.3-14.1-.6l-.6.6-21.3 23.2-21.3-23.2c-3.7-4.1-10.1-4.3-14.1-.6l-.6.6-21.3 23.2-21.3-23.2c-3.7-4.1-10.1-4.3-14.1-.6l-.6.6-21.3 23.2-21.4-23.2c-2.7-3-7-4.1-10.8-2.6s-6.3 5.2-6.2 9.3v458.8c-.1 5.4 4.2 9.9 9.6 10 2.9.1 5.6-1.1 7.5-3.3l21.3-23.3 21.3 23.2c3.7 4.1 10 4.3 14.1.6l.6-.6 21.3-23.2 21.3 23.2c3.7 4.1 10.1 4.3 14.1.6l.6-.6 21.3-23.2 21.3 23.2c3.7 4.1 10.1 4.3 14.1.6l.6-.6 21.3-23.2 21.3 23.2c3.7 4.1 10.1 4.3 14.1.6l.6-.6 21.3-23.2 21.2 23.2c1.9 2.1 4.6 3.2 7.4 3.2 1.2 0 2.3-.2 3.4-.7 3.8-1.5 6.3-5.2 6.2-9.3V9.786c.3-3.9-2.2-7.6-6-9.1zm-32.1 426.7c-2.8 0-5.5 1.2-7.4 3.3l-21.3 23.3-21.3-23.2c-3.7-4.1-10.1-4.3-14.1-.6l-.6.6-21.3 23.2-21.3-23.2c-3.7-4.1-10.1-4.3-14.1-.6l-.6.6-21.3 23.2-21.3-23.2c-3.7-4.1-10.1-4.3-14.1-.6l-.6.6-21.3 23.2-21.3-23.3c-1.9-2.1-4.6-3.3-7.4-3.3s-5.4 1.2-7.2 3.3l-11.2 12.4v-407.4l11.1 12.3c1.8 2.1 4.4 3.3 7.2 3.3s5.5-1.2 7.4-3.3l21.3-23.3 21.3 23.2c3.7 4.1 10.1 4.3 14.1.6l.6-.6 21.3-23.2 21.3 23.2c3.7 4.1 10.1 4.3 14.1.6l.6-.6 21.3-23.2 21.3 23.2c3.7 4.1 10.1 4.3 14.1.6l.6-.6 21.3-23.2 21.3 23.3c1.9 2.1 4.6 3.3 7.4 3.3 2.8 0 5.4-1.2 7.2-3.3l11.2-12.4v407.4l-11.1-12.3c-1.8-2.1-4.4-3.3-7.2-3.3z" fill="#000000" opacity="1" data-original="#000000" class=""></path></g></svg>