<svg xmlns="http://www.w3.org/2000/svg" version="1.1" xmlns:xlink="http://www.w3.org/1999/xlink" width="512" height="512" x="0" y="0" viewBox="0 0 64 64" style="enable-background:new 0 0 512 512" xml:space="preserve" class=""><g><path d="m29.976 39.648-.62-1.902a2.003 2.003 0 0 0-2.52-1.282l-1.902.619-.62-1.902a2.005 2.005 0 0 0-2.52-1.282l-1.902.62a2.003 2.003 0 0 0-1.282 2.52l.619 1.902-1.903.62a2.003 2.003 0 0 0-1.28 2.52l.619 1.903a2.003 2.003 0 0 0 2.52 1.282l1.902-.619.62 1.902a2.002 2.002 0 0 0 1.903 1.38c.444.048 2.076-.605 2.52-.717a2.003 2.003 0 0 0 1.282-2.522l-.62-1.901 1.903-.62a2.003 2.003 0 0 0 1.281-2.52zm-4.754 1.548a1.006 1.006 0 0 0-.641 1.26l.93 2.853-1.903.62c-1.457-4.377-.662-3.955-5.042-2.564l-.62-1.902c4.37-1.45 3.958-.671 2.565-5.042l1.902-.62c1.458 4.375.66 3.956 5.042 2.565l.62 1.901-2.853.929z" fill="#000000" opacity="1" data-original="#000000"></path><path d="M6.919 54.11c.778 3.208 4.03 5.18 7.248 4.406l5.925-1.442c.062 1.179-.27 2.442-.95 3.531a1 1 0 0 0 1.074 1.504c3.378-.786 6.146-3.378 6.913-6.754l13.267-3.228c3.214-.78 5.195-4.027 4.416-7.238a.995.995 0 0 0-1.207-.736 1 1 0 0 0-.736 1.207 4.001 4.001 0 0 1-2.945 4.823l-13.89 3.38a1 1 0 0 0-.752.818c-.32 2.123-1.594 3.866-3.432 4.943.282-1.156.745-4.752-1.176-4.45l-6.978 1.699c-2.15.518-4.315-.797-4.834-2.936L4.122 34.2a4.015 4.015 0 0 1 2.945-4.834l10.31-2.51c1.268-.324.81-2.236-.473-1.943l-10.312 2.51c-3.211.789-5.19 4.04-4.413 7.25L6.92 54.11z" fill="#000000" opacity="1" data-original="#000000"></path><path d="m57.398 8.426-26.232-6.39a6.006 6.006 0 0 0-7.25 4.41l-4.734 19.432a6.008 6.008 0 0 0 4.41 7.25L36.86 36.36c.76 3.36 3.56 5.983 6.911 6.746a1 1 0 0 0 1.073-1.504c-.68-1.09-1.012-2.353-.948-3.529l5.929 1.444c3.215.779 6.467-1.196 7.25-4.41l4.733-19.43c.827-3.118-1.26-6.552-4.41-7.25zm2.467 6.777L55.13 34.634a4.007 4.007 0 0 1-4.833 2.94l-6.981-1.7c-1.927-.288-1.46 3.258-1.18 4.449-1.827-1.064-3.118-2.838-3.43-4.936a1 1 0 0 0-.751-.819l-13.89-3.384a4.005 4.005 0 0 1-2.94-4.833L25.858 6.92a4.005 4.005 0 0 1 4.833-2.94l26.233 6.39c2.098.466 3.493 2.754 2.94 4.833z" fill="#000000" opacity="1" data-original="#000000"></path><path d="m49.76 18.811-1.934-.512c.408-1.961 1.728-4.515.49-6.418a3.977 3.977 0 0 0-2.435-1.856L42.015 9c-2.071-.595-4.382.748-4.892 2.841l-.897 3.383-1.933-.512a4.007 4.007 0 0 0-4.892 2.842l-.255.966a4.005 4.005 0 0 0 2.84 4.892l1.934.512-.897 3.383a4.005 4.005 0 0 0 2.842 4.891l3.866 1.025a3.976 3.976 0 0 0 3.036-.406 3.976 3.976 0 0 0 1.856-2.435l.897-3.383 1.933.512c2.076.567 4.333-.692 4.891-2.841l.257-.967a4.006 4.006 0 0 0-2.842-4.892zM32.5 21.478a2.002 2.002 0 0 1-1.42-2.446l.255-.966a2.004 2.004 0 0 1 1.934-1.488c.365-.038 2.066.506 2.445.58l-1.281 4.833zm12.24.658c-.498 1.882-1.548 5.833-2.05 7.733-.256 1.047-1.408 1.72-2.446 1.42l-3.867-1.024a2.001 2.001 0 0 1-1.42-2.445l4.1-15.466a2.004 2.004 0 0 1 2.445-1.42l3.866 1.024c1.048.256 1.719 1.408 1.421 2.446l-2.05 7.732zm5.927 1.055-.256.966a2.003 2.003 0 0 1-2.446 1.42l-1.933-.511 1.282-4.834 1.933.513a2.002 2.002 0 0 1 1.42 2.446z" fill="#000000" opacity="1" data-original="#000000"></path><path d="M43.633 14.601 41.7 14.09a2.004 2.004 0 0 0-2.445 1.42l-2.562 9.667a1.987 1.987 0 0 0 .204 1.517c.464 1.008 2.24 1.14 3.15 1.441a2.006 2.006 0 0 0 2.446-1.42l2.562-9.667c.297-1.033-.376-2.192-1.42-2.446zm-3.074 11.6-1.934-.51 2.562-9.669 1.934.512-2.562 9.667z" fill="#000000" opacity="1" data-original="#000000"></path></g></svg>