<svg xmlns="http://www.w3.org/2000/svg" version="1.1" xmlns:xlink="http://www.w3.org/1999/xlink" width="512" height="512" x="0" y="0" viewBox="0 0 682.667 682.667" style="enable-background:new 0 0 512 512" xml:space="preserve" class=""><g><defs><clipPath id="a" clipPathUnits="userSpaceOnUse"><path d="M0 512h512V0H0Z" fill="#000000" opacity="1" data-original="#000000"></path></clipPath></defs><g clip-path="url(#a)" transform="matrix(1.33333 0 0 -1.33333 0 682.667)"><path d="M0 0v147.229c0 19.757 16.179 35.943 35.956 35.943h56.271m132.714-416.431H35.956C16.179-233.259 0-217.073 0-197.287v117.408m250.074 263.051h56.299c19.777 0 35.955-16.186 35.955-35.943V-27.978" style="stroke-width:20.008;stroke-linecap:round;stroke-linejoin:round;stroke-miterlimit:10;stroke-dasharray:none;stroke-opacity:1" transform="translate(33 297.768)" fill="none" stroke="#000000" stroke-width="20.008" stroke-linecap="round" stroke-linejoin="round" stroke-miterlimit="10" stroke-dasharray="none" stroke-opacity="" data-original="#000000"></path><path d="M0 0c6.999 29.734 36.749 48.188 66.5 41.215 29.722-6.974 48.167-36.765 41.197-66.5-6.97-29.763-36.749-48.216-66.471-41.215C11.475-59.526-6.97-29.764 0 0Z" style="stroke-width:20.008;stroke-linecap:round;stroke-linejoin:round;stroke-miterlimit:10;stroke-dasharray:none;stroke-opacity:1" transform="translate(89.752 188.126)" fill="none" stroke="#000000" stroke-width="20.008" stroke-linecap="round" stroke-linejoin="round" stroke-miterlimit="10" stroke-dasharray="none" stroke-opacity="" data-original="#000000"></path><path d="M0 0h226.954" style="stroke-width:20.008;stroke-linecap:round;stroke-linejoin:round;stroke-miterlimit:10;stroke-dasharray:none;stroke-opacity:1" transform="translate(97.374 383.457)" fill="none" stroke="#000000" stroke-width="20.008" stroke-linecap="round" stroke-linejoin="round" stroke-miterlimit="10" stroke-dasharray="none" stroke-opacity="" data-original="#000000"></path><path d="M0 0h183.064" style="stroke-width:20.008;stroke-linecap:round;stroke-linejoin:round;stroke-miterlimit:10;stroke-dasharray:none;stroke-opacity:1" transform="translate(97.374 331.272)" fill="none" stroke="#000000" stroke-width="20.008" stroke-linecap="round" stroke-linejoin="round" stroke-miterlimit="10" stroke-dasharray="none" stroke-opacity="" data-original="#000000"></path><path d="m0 0 13.005-12.217 26.436 29.082" style="stroke-width:20.008;stroke-linecap:round;stroke-linejoin:round;stroke-miterlimit:10;stroke-dasharray:none;stroke-opacity:1" transform="translate(123.894 173.16)" fill="none" stroke="#000000" stroke-width="20.008" stroke-linecap="round" stroke-linejoin="round" stroke-miterlimit="10" stroke-dasharray="none" stroke-opacity="" data-original="#000000"></path><path d="M0 0h141.244c4.562 0 8.302-3.741 8.302-8.306v-27.212c0-4.563-3.74-8.305-8.302-8.305H0c-4.562 0-8.302 3.742-8.302 8.305v27.212C-8.302-3.741-4.562 0 0 0Z" style="stroke-width:20.008;stroke-linecap:round;stroke-linejoin:round;stroke-miterlimit:10;stroke-dasharray:none;stroke-opacity:1" transform="translate(133.528 502)" fill="none" stroke="#000000" stroke-width="20.008" stroke-linecap="round" stroke-linejoin="round" stroke-miterlimit="10" stroke-dasharray="none" stroke-opacity="" data-original="#000000"></path><path d="M0 0h154.589" style="stroke-width:20.008;stroke-linecap:round;stroke-linejoin:round;stroke-miterlimit:10;stroke-dasharray:none;stroke-opacity:1" transform="translate(97.374 279.088)" fill="none" stroke="#000000" stroke-width="20.008" stroke-linecap="round" stroke-linejoin="round" stroke-miterlimit="10" stroke-dasharray="none" stroke-opacity="" data-original="#000000"></path><path d="M0 0c-151.784 53.12-150.509-213.246-27.937-213.246H27.966C150.537-213.246 151.812 53.12.028 0Z" style="stroke-width:20.008;stroke-linecap:round;stroke-linejoin:round;stroke-miterlimit:10;stroke-dasharray:none;stroke-opacity:1" transform="translate(361.87 223.246)" fill="none" stroke="#000000" stroke-width="20.008" stroke-linecap="round" stroke-linejoin="round" stroke-miterlimit="10" stroke-dasharray="none" stroke-opacity="" data-original="#000000"></path><path d="M0 0v0c.255.028 1.983 51.307-53.353 48.613 2.918-19.558 10.371-34.128 23.715-41.98" style="stroke-width:20.008;stroke-linecap:round;stroke-linejoin:round;stroke-miterlimit:10;stroke-dasharray:none;stroke-opacity:1" transform="translate(361.87 223.246)" fill="none" stroke="#000000" stroke-width="20.008" stroke-linecap="round" stroke-linejoin="round" stroke-miterlimit="10" stroke-dasharray="none" stroke-opacity="" data-original="#000000"></path><path d="M0 0s-3.599 78.972 82.14 74.776C77.181 41.782 63.864 18.057 39.469 6.974" style="stroke-width:20.008;stroke-linecap:round;stroke-linejoin:round;stroke-miterlimit:10;stroke-dasharray:none;stroke-opacity:1" transform="translate(361.898 223.246)" fill="none" stroke="#000000" stroke-width="20.008" stroke-linecap="round" stroke-linejoin="round" stroke-miterlimit="10" stroke-dasharray="none" stroke-opacity="" data-original="#000000"></path><path d="M0 0v.198" style="stroke-width:20.008;stroke-linecap:round;stroke-linejoin:round;stroke-miterlimit:10;stroke-dasharray:none;stroke-opacity:1" transform="translate(33 257.828)" fill="none" stroke="#000000" stroke-width="20.008" stroke-linecap="round" stroke-linejoin="round" stroke-miterlimit="10" stroke-dasharray="none" stroke-opacity="" data-original="#000000"></path></g></g></svg>