<svg xmlns="http://www.w3.org/2000/svg" version="1.1" xmlns:xlink="http://www.w3.org/1999/xlink" width="512" height="512" x="0" y="0" viewBox="0 0 500 500" style="enable-background:new 0 0 512 512" xml:space="preserve" class=""><g><path fill-rule="evenodd" d="M437.374 121.607c-1.204 3.321-4.183 2.823-5.682 3.59-.088.052-9.049 3.955-25.741 5.672-2.857.26-5.224 2.342-5.927 5.099-.629 2.497-1.514 3.59-8.299 5.047-4.314.936-8.721-.572-11.489-4.006a6.712 6.712 0 0 0-6.156-2.498l-73.06 8.95-.385.052c-92.525 9.262-107.646-4.683-110.076-9.158-5.099-9.381 1.718-20.969 12.524-20.969l3.075.312c82.056 5.932 129.495 7.649 210.88 2.81 5.245-.314 16.786-2.509 19.367.312a4.693 4.693 0 0 1 .969 4.787zm-229.034 56.82c6.546-6.348 11.468-12.644 14.725-18.94-24.466-2.185-38.973-8.325-44.525-18.576-5.446-10.064-4.066-22.418 3.106-31.168-18.009 1.925-34.352 13.113-45.394 31.22-8.756 14.363-10.451 29.281-19.887 45.373-7.274 12.384-18.373 27.213-33.036 44.228 12.072 5.151 25.366 8.377 39.649 9.574 13.197 1.095 23.859.573 36.028.573 1.769-6.92 5.032-14.153 9.756-21.49 12.996-20.207 24.678-26.45 39.578-40.794zm12.301 85.646-38.026 48.183c-30.585 2.966-56.69 2.237-77.644-2.237-24.84-5.255-39.732-12.436-42.376-33.613-1.332-10.771 2.581-22.478 11.635-34.966 14.408 6.764 30.392 10.875 47.615 12.332 26.309 2.193 43.495-1.72 70.609 3.486a321.982 321.982 0 0 1 28.187 6.815zm38.983 35.123c5.552-13.633-.822-18.68-16.698-26.953-3.189-1.665-6.02-2.81-8.382-3.694l-37.074 46.986c3.278 1.457 6.207 2.446 8.726 2.914 6.22 1.149 7.676 9.626 2.035 12.696-23.181 12.8-40.695 65.302-44.592 87.468 8.388 2.185 15.985 2.446 22.66.781l66.54-107.813c3.059-4.647 5.283-8.644 6.785-12.385zM211.857 446.19c4.449 2.446 13.476 7.441 15.839 9.73.328 1.509-.474 3.903-1.228 4.475-8.362 2.185-58.589 1.561-80.412.677.932-10.095 5.073-19.877 12.556-29.607 11.27 3.122 21.677 3.538 31.043 1.197l14.882 9.366c1.753 1.092 4.328 2.496 7.32 4.162zm-34.42-399.615c11.689-11.429 30.52-11.241 42.006.52 11.461 11.736 11.225 30.526-.525 41.991-11.752 11.467-30.563 11.202-42.012-.52-11.438-11.713-11.244-30.561.531-41.991zm269.038 60.983c-7.903-8.61-21.101-5.299-30.247-4.683-74.283 4.371-120.077 3.278-190.53-1.509 19.642-16.101 21.298-45.629 3.533-63.845-16.648-17.071-44.122-17.537-61.352-.728-8.289 8.065-12.94 18.888-13.086 30.491s4.23 22.53 12.321 30.856c.193.156.39.364.583.572-17.186 5.255-32.344 17.431-43.125 35.122-9.791 16.068-11.321 30.798-20.007 45.581-8.185 13.945-21.682 31.376-40.123 51.877a6.534 6.534 0 0 0-1.348 2.237c-11.093 15.35-15.849 30.283-14.07 44.54 4.36 35.018 36.064 41.731 53.105 45.373 13.518 2.862 28.925 4.267 46.091 4.267 12.046 0 24.955-.676 38.661-2.134 1.316.676 2.591 1.353 3.84 1.925-24.383 23.831-39.03 75.084-41.252 93.503-12.041 14.882-17.858 30.596-17.244 46.83.125 3.486 2.888 6.348 6.4 6.556 9.376.589 78.706 2.715 91.635-.884 9.429-2.625 13.496-15.138 9.84-23.519-1.983-4.527-8.419-8.482-21.63-15.766-7.527-4.186-11.371-6.75-18.368-11.135l64.323-104.222c3.455-5.255 6.104-10.146 7.867-14.517 10.818-26.589-10.386-37.62-23.061-44.228-4.756-2.446-9.465-4.371-14.013-5.724a5.537 5.537 0 0 0-.91-.364c-19.308-6.354-41.38-11.722-61.17-12.956 1.525-4.579 3.903-9.47 7.134-14.465 11.627-18.055 23.211-24.531 37.557-38.349 9.428-9.106 16.084-18.472 19.887-27.994 2.591.052 5.255.104 8.018.104 15.865 0 34.566-1.093 56.258-3.278h.468l69.875-8.585c5.989 5.411 14.215 7.649 22.307 5.88 4.657-.989 12.717-2.758 16.848-10.407 13.716-1.769 22.197-4.839 24.903-5.932 6.374-1.197 11.619-5.672 13.846-11.812a18.308 18.308 0 0 0-3.764-18.678z" clip-rule="evenodd" fill="#000000" opacity="1" data-original="#000000" class=""></path></g></svg>