<svg xmlns="http://www.w3.org/2000/svg" version="1.1" xmlns:xlink="http://www.w3.org/1999/xlink" width="512" height="512" x="0" y="0" viewBox="0 0 64 64" style="enable-background:new 0 0 512 512" xml:space="preserve" class=""><g><path d="M34.85 24.37c3.995 0 7.23-4.781 8.246-9.28a1 1 0 1 0-1.951-.44c-.838 3.713-3.484 7.72-6.295 7.72-3.495 0-6.56-6.114-6.56-9.81a6.56 6.56 0 0 1 12.955-1.467 1 1 0 0 0 1.95-.446C40.736.788 26.508 2.413 26.29 12.56c0 4.646 3.676 11.81 8.56 11.81z" fill="#000000" opacity="1" data-original="#000000"></path><path d="M18.299 35.15a.997.997 0 0 0 1.273-.615 16.294 16.294 0 0 1 7.46-8.825 11.06 11.06 0 0 0 7.819 3.445 11.014 11.014 0 0 0 7.81-3.446 16.287 16.287 0 0 1 3.627 2.724 16.05 16.05 0 0 1 4.442 8.354 1 1 0 0 0 1.965-.377 18.151 18.151 0 0 0-9.799-12.831 1 1 0 0 0-1.177.224 9.426 9.426 0 0 1-6.868 3.352 9.483 9.483 0 0 1-6.883-3.354 1 1 0 0 0-1.18-.22 18.303 18.303 0 0 0-9.104 10.296 1 1 0 0 0 .615 1.273z" fill="#000000" opacity="1" data-original="#000000"></path><path d="M44.543 47.092a7.283 7.283 0 0 0-5.883-8.26l-5.695-1.071c-7.004-5.568-11.42-2.009-11.56-1.888l-6.296 4.666a3.767 3.767 0 0 0-4.24.054l-5.787 4.065a1 1 0 0 0 1.15 1.636l5.787-4.065a1.758 1.758 0 0 1 2.465.454L20.791 52a1.763 1.763 0 0 1-.459 2.433l-5.442 3.742a1 1 0 0 0 1.132 1.648l5.443-3.742a3.75 3.75 0 0 0 1.596-3.413c3.878.052 8.88 1.86 10.989 2.7a9.828 9.828 0 0 0 5.986.195 1 1 0 0 0-.351-1.968 8.115 8.115 0 0 1-4.895-.085c-2.916-1.16-8.29-3.009-12.478-2.831l-5.855-8.651 6.176-4.58c.14-.11 3.493-2.679 9.268 2.024a1.002 1.002 0 0 0 .448.207l5.944 1.117a5.294 5.294 0 0 1 4.293 5.835l-10.825-1.78a1 1 0 0 0-.324 1.973l10.954 1.801a1.83 1.83 0 0 0 2.152-1.534zM58.814 42.669a6.185 6.185 0 0 0-8.18-1.968l-4.019 2.29a1 1 0 0 0 .99 1.737l4.017-2.288c1.952-1.159 5.147-.36 5.718 1.98a1.158 1.158 0 0 1-.46.928l-7.434 5.733a6.411 6.411 0 0 1-2.775 1.245l-3.02.55a1 1 0 0 0 .358 1.968c2.154-.402 4.94-.68 6.66-2.182l7.422-5.722a3.19 3.19 0 0 0 .723-4.271zM41.883 36.078a1 1 0 0 0 1-1v-.808h.807a1 1 0 1 0 0-2h-.807v-.808a1 1 0 1 0-2 0v.808h-.808a1 1 0 0 0 0 2h.808v.808a1 1 0 0 0 1 1z" fill="#000000" opacity="1" data-original="#000000"></path></g></svg>