<svg xmlns="http://www.w3.org/2000/svg" version="1.1" xmlns:xlink="http://www.w3.org/1999/xlink" width="512" height="512" x="0" y="0" viewBox="0 0 64 64" style="enable-background:new 0 0 512 512" xml:space="preserve" class=""><g><path d="M21.89 17.16A6.336 6.336 0 0 0 22 16a6 6 0 1 0-12 .24 6.224 6.224 0 0 0 .11.88A15.914 15.914 0 0 0 0 32.05a16.177 16.177 0 0 0 15.23 15.93c.26.01.52.02.78.02a15.978 15.978 0 0 0 5.88-30.84Zm3.77 24.97a13.9 13.9 0 0 1-10.34 3.85A14.141 14.141 0 0 1 2 32.04a13.917 13.917 0 0 1 8.84-13.06 1.987 1.987 0 0 0 1.23-2.23 3.805 3.805 0 0 1-.07-.59 4.053 4.053 0 0 1 3.25-4.09 4 4 0 0 1 3.31.86A3.965 3.965 0 0 1 20 16a4.9 4.9 0 0 1-.07.77 1.963 1.963 0 0 0 1.22 2.21 14 14 0 0 1 4.51 23.15ZM40 14a3 3 0 0 0-2-2.816V7a1 1 0 0 0-2 0v4.184a2.982 2.982 0 0 0 0 5.632v12.368a2.982 2.982 0 0 0 0 5.632v12.368a2.982 2.982 0 0 0 0 5.632V57a1 1 0 0 0 2 0v-4.184a2.982 2.982 0 0 0 0-5.632V34.816a2.982 2.982 0 0 0 0-5.632V16.816A3 3 0 0 0 40 14Zm-3-1a1 1 0 1 1-1 1 1 1 0 0 1 1-1Zm0 38a1 1 0 1 1 1-1 1 1 0 0 1-1 1Zm0-18a1 1 0 1 1 1-1 1 1 0 0 1-1 1ZM62 6H48a2 2 0 0 0-2 2v2.447l-3.034 1.9a1.9 1.9 0 0 0-.007 3.3L46 17.553V20a2 2 0 0 0 2 2h14a2 2 0 0 0 2-2V8a2 2 0 0 0-2-2Zm0 14H48v-3a1 1 0 0 0-.469-.847L44.1 14l3.431-2.151A1 1 0 0 0 48 11V8h14ZM62 42H48a2 2 0 0 0-2 2v2.447l-3.034 1.9a1.9 1.9 0 0 0-.007 3.3L46 53.553V56a2 2 0 0 0 2 2h14a2 2 0 0 0 2-2V44a2 2 0 0 0-2-2Zm0 14H48v-3a1 1 0 0 0-.469-.847L44.1 50l3.431-2.151A1 1 0 0 0 48 47v-3h14ZM62 24H48a2 2 0 0 0-2 2v2.447l-3.034 1.9a1.9 1.9 0 0 0-.007 3.3L46 35.553V38a2 2 0 0 0 2 2h14a2 2 0 0 0 2-2V26a2 2 0 0 0-2-2Zm0 14H48v-3a1 1 0 0 0-.469-.847L44.1 32l3.431-2.151A1 1 0 0 0 48 29v-3h14Z" fill="#000000" opacity="1" data-original="#000000" class=""></path><path d="M54 13h5a1 1 0 0 0 0-2h-5a1 1 0 0 0 0 2ZM51 17h8a1 1 0 0 0 0-2h-8a1 1 0 0 0 0 2ZM54 31h5a1 1 0 0 0 0-2h-5a1 1 0 0 0 0 2ZM51 35h8a1 1 0 0 0 0-2h-8a1 1 0 0 0 0 2ZM54 49h5a1 1 0 0 0 0-2h-5a1 1 0 0 0 0 2ZM51 53h8a1 1 0 0 0 0-2h-8a1 1 0 0 0 0 2ZM24.51 23.55a.071.071 0 0 0-.06-.06 11.975 11.975 0 0 0-16.9 0 .071.071 0 0 0-.06.06 11.975 11.975 0 0 0 0 16.9.071.071 0 0 0 .06.06 11.975 11.975 0 0 0 16.9 0 .071.071 0 0 0 .06-.06 11.975 11.975 0 0 0 0-16.9Zm-.77 14.77-.67-.66a1 1 0 1 0-1.41 1.41l.66.67A9.949 9.949 0 0 1 17 41.95V41a1 1 0 0 0-2 0v.95a9.949 9.949 0 0 1-5.32-2.21l.66-.67a1 1 0 1 0-1.41-1.41l-.67.66A9.949 9.949 0 0 1 6.05 33H7a1 1 0 0 0 0-2h-.95a9.949 9.949 0 0 1 2.21-5.32l.67.66a.978.978 0 0 0 1.41 0 1 1 0 0 0 0-1.41l-.66-.67A9.949 9.949 0 0 1 15 22.05V23a1 1 0 0 0 2 0v-.95a9.949 9.949 0 0 1 5.32 2.21l-.66.67a1 1 0 0 0 0 1.41.978.978 0 0 0 1.41 0l.67-.66A9.949 9.949 0 0 1 25.95 31H25a1 1 0 0 0 0 2h.95a9.949 9.949 0 0 1-2.21 5.32Z" fill="#000000" opacity="1" data-original="#000000" class=""></path><path d="M16 33h3a1 1 0 0 0 0-2h-2v-4a1 1 0 0 0-2 0v5a1 1 0 0 0 1 1Z" fill="#000000" opacity="1" data-original="#000000" class=""></path><circle cx="16" cy="16" r="2" fill="#000000" opacity="1" data-original="#000000" class=""></circle></g></svg>