<svg xmlns="http://www.w3.org/2000/svg" version="1.1" xmlns:xlink="http://www.w3.org/1999/xlink" width="512" height="512" x="0" y="0" viewBox="0 0 64 64" style="enable-background:new 0 0 512 512" xml:space="preserve" class=""><g><path fill="#193651" d="M33 57.1h-2v-.2h2zm0-2.2h-2v-2h2zm0-4h-2v-2h2zm0-4h-2v-2h2zm0-4h-2v-2h2zm0-4h-2v-2h2zm0-4h-2v-2h2zm0-4h-2v-2h2zm0-4h-2v-2h2zm0-4h-2v-2h2zm0-4h-2v-2h2zm0-4h-2v-2h2z" opacity="1" data-original="#193651" class=""></path><path fill="#193651" d="m7.6 40.6-1.5-1.4 1.4-1.5L9 39.1zm48.8 0-1.2-1.3 1.5-1.4 1.2 1.3zm-2.6-2.8-1.4-1.5 1.5-1.4 1.4 1.5zm-43.4-.2-1.5-1.4 1.4-1.5 1.5 1.4zm40.7-2.7-1.4-1.5 1.5-1.4 1.4 1.5zm-38-.2-1.5-1.4 1.4-1.5 1.5 1.4zM48.4 32 47 30.5l1.5-1.4 1.4 1.5zm-32.6-.2-1.5-1.4 1.4-1.5 1.5 1.4zM45.6 29l-1.4-1.5 1.5-1.4 1.4 1.5zm-27.1-.1L17 27.5l1.4-1.5 1.5 1.4zm24.4-2.8-1.4-1.5 1.5-1.4 1.4 1.5zm-21.7-.2-1.5-1.4 1.4-1.5 1.5 1.4zm19-2.7-1.4-1.5 1.5-1.4 1.4 1.5zM24 23l-1.5-1.4 1.4-1.5 1.5 1.4zm13.5-2.8-1.4-1.5 1.5-1.4 1.4 1.5zm-10.8-.1-1.5-1.4 1.4-1.5 1.5 1.4zm8-2.8-1.4-1.5 1.5-1.4 1.4 1.5zm-5.3-.2-1.5-1.4 1.4-1.5 1.5 1.4zm2.6-2.7-.8-.8.1-.1-.7-.6 1.3-1.4 1.5 1.6z" opacity="1" data-original="#193651" class=""></path><circle cx="32" cy="12.9" r="11.9" fill="#ffffff" opacity="1" data-original="#ffffff"></circle><path fill="#193651" d="M32 25.7c-7.1 0-12.9-5.8-12.9-12.9C19.1 5.8 24.9 0 32 0s12.9 5.8 12.9 12.9S39.1 25.7 32 25.7zM32 2c-6 0-10.9 4.9-10.9 10.9S26 23.8 32 23.8s10.9-4.9 10.9-10.9S38 2 32 2z" opacity="1" data-original="#193651" class=""></path><path fill="#4fbf9f" d="M32 20.7c-4.3 0-7.9-3.5-7.9-7.9C24.1 8.5 27.7 5 32 5s7.9 3.5 7.9 7.9c0 4.3-3.6 7.8-7.9 7.8z" opacity="1" data-original="#4fbf9f" class=""></path><circle cx="32" cy="57.1" r="5.9" fill="#ffffff" opacity="1" data-original="#f16051" class=""></circle><path fill="#193651" d="M32 64c-3.8 0-6.9-3.1-6.9-6.9s3.1-6.9 6.9-6.9 6.9 3.1 6.9 6.9S35.8 64 32 64zm0-11.8c-2.7 0-4.9 2.2-4.9 4.9S29.3 62 32 62s4.9-2.2 4.9-4.9-2.2-4.9-4.9-4.9z" opacity="1" data-original="#193651" class=""></path><circle cx="6.9" cy="39.9" r="5.9" fill="#ffffff" opacity="1" data-original="#e1e6e9" class=""></circle><path fill="#193651" d="M6.9 46.8c-3.8 0-6.9-3.1-6.9-6.9S3.1 33 6.9 33s6.9 3.1 6.9 6.9-3.1 6.9-6.9 6.9zm0-11.8C4.2 35 2 37.2 2 39.9s2.2 4.9 4.9 4.9 4.9-2.2 4.9-4.9S9.6 35 6.9 35z" opacity="1" data-original="#193651" class=""></path><circle cx="57.1" cy="39.9" r="5.9" fill="#ffffff" opacity="1" data-original="#2ea2db" class=""></circle><path fill="#193651" d="M57.1 46.8c-3.8 0-6.9-3.1-6.9-6.9s3.1-6.9 6.9-6.9 6.9 3.1 6.9 6.9-3.1 6.9-6.9 6.9zm0-11.8c-2.7 0-4.9 2.2-4.9 4.9s2.2 4.9 4.9 4.9 4.9-2.2 4.9-4.9-2.2-4.9-4.9-4.9z" opacity="1" data-original="#193651" class=""></path></g></svg>