<svg xmlns="http://www.w3.org/2000/svg" version="1.1" xmlns:xlink="http://www.w3.org/1999/xlink" width="512" height="512" x="0" y="0" viewBox="0 0 60 60" style="enable-background:new 0 0 512 512" xml:space="preserve" class=""><g><path fill="#cad0d7" d="M58 57V28a1 1 0 0 0-1-1H3a1 1 0 0 0-1 1v29z" opacity="1" data-original="#cad0d7"></path><path fill="#e4e8eb" d="M45 13a1 1 0 0 1 1 1v41H14V14a1 1 0 0 1 1-1z" opacity="1" data-original="#e4e8eb"></path><path fill="#cad0d7" d="M19 40h22v16H19z" opacity="1" data-original="#cad0d7"></path><path fill="#4fc0e8" d="M23 41h14v14H23z" opacity="1" data-original="#4fc0e8"></path><path fill="#66d4f1" d="M37 51c-5-1-7-8-7-8v12h7zM30 51c-5-1-7-8-7-8v12h7z" opacity="1" data-original="#66d4f1"></path><rect width="4" height="4" x="6" y="31" fill="#3aadd9" rx="1" opacity="1" data-original="#3aadd9"></rect><rect width="5" height="4" x="18" y="24" fill="#4fc0e8" rx="1" opacity="1" data-original="#4fc0e8"></rect><rect width="6" height="4" x="27" y="24" fill="#4fc0e8" rx="1" opacity="1" data-original="#4fc0e8"></rect><rect width="5" height="4" x="37" y="24" fill="#4fc0e8" rx="1" opacity="1" data-original="#4fc0e8"></rect><g fill="#3aadd9"><rect width="4" height="4" x="6" y="47" rx="1" fill="#3aadd9" opacity="1" data-original="#3aadd9"></rect><rect width="4" height="4" x="6" y="39" rx="1" fill="#3aadd9" opacity="1" data-original="#3aadd9"></rect><rect width="4" height="4" x="50" y="31" rx="1" transform="rotate(180 52 33)" fill="#3aadd9" opacity="1" data-original="#3aadd9"></rect><rect width="4" height="4" x="50" y="47" rx="1" transform="rotate(180 52 49)" fill="#3aadd9" opacity="1" data-original="#3aadd9"></rect><rect width="4" height="4" x="50" y="39" rx="1" transform="rotate(180 52 41)" fill="#3aadd9" opacity="1" data-original="#3aadd9"></rect></g><rect width="24" height="18" x="18" y="1" fill="#f62d4d" rx="2" opacity="1" data-original="#f76c82" class=""></rect><path fill="#ffffff" d="M35 9v2a1 1 0 0 1-1 1h-2v2a1 1 0 0 1-1 1h-2a1 1 0 0 1-1-1v-2h-2a1 1 0 0 1-1-1V9a1 1 0 0 1 1-1h2V6a1 1 0 0 1 1-1h2a1 1 0 0 1 1 1v2h2a1 1 0 0 1 1 1z" opacity="1" data-original="#ffffff"></path><rect width="24" height="8" x="18" y="33" fill="#a9b0bb" rx="1" opacity="1" data-original="#a9b0bb"></rect><rect width="58" height="4" x="1" y="55" fill="#636c77" rx="1" opacity="1" data-original="#636c77"></rect><path fill="#3aadd9" d="M29 41h2v14h-2z" opacity="1" data-original="#3aadd9"></path></g></svg>