<svg xmlns="http://www.w3.org/2000/svg" version="1.1" xmlns:xlink="http://www.w3.org/1999/xlink" width="512" height="512" x="0" y="0" viewBox="0 0 512 512" style="enable-background:new 0 0 512 512" xml:space="preserve" class=""><g><path fill="#05e39c" d="M286.534 7.5h-80c-55 0-100 45-100 100v25c0 11.93 3.03 23.184 8.35 33.041a30.108 30.108 0 0 1 11.763-9.527V151.5c0-33.084 26.916-60 60-60H306.42c33.084 0 60 26.916 60 60v4.514a30.108 30.108 0 0 1 11.763 9.527 69.377 69.377 0 0 0 8.35-33.041v-25c.001-55-44.999-100-99.999-100z" opacity="1" data-original="#05e39c" class=""></path><path fill="#0ed290" d="M126.647 156.014V151.5c0-18.142 8.105-34.417 20.871-45.428C148.29 51.724 192.978 7.5 247.5 7.5h-40.966c-55 0-100 45-100 100v25c0 11.93 3.03 23.184 8.35 33.041a30.092 30.092 0 0 1 11.763-9.527z" opacity="1" data-original="#0ed290" class=""></path><path fill="#00c285" d="M306.42 91.5H186.647c-33.084 0-60 26.916-60 60v4.514a29.88 29.88 0 0 1 12.387-2.678h12.614V151.5c0-19.33 15.67-35 35-35H306.42c19.33 0 35 15.67 35 35v1.835h12.614c4.418 0 8.61.963 12.387 2.678V151.5c-.001-33.084-26.917-60-60.001-60z" opacity="1" data-original="#00c285"></path><path fill="#07b27b" d="M151.647 151.5c0-10.694 4.801-20.261 12.359-26.681 9.839-19.729 30.217-33.319 53.72-33.319h-31.08c-33.084 0-60 26.916-60 60v4.514a29.88 29.88 0 0 1 12.387-2.678h12.614z" opacity="1" data-original="#07b27b"></path><path fill="#05e39c" d="M377.844 323a5 5 0 0 1 5-5h5.5v-11.062a49.995 49.995 0 0 0-13.811-1.948h-256c-8.9 0-17.25 2.336-24.489 6.412v60.863h4.013c7.148 0 12.965 5.817 12.965 12.965 0 4.11-1.899 7.891-5.212 10.372a1.996 1.996 0 0 0 0 3.192c3.313 2.481 5.212 6.26 5.212 10.371s-1.899 7.889-5.212 10.371a1.995 1.995 0 0 0 0 3.192c3.313 2.482 5.212 6.263 5.212 10.372s-1.899 7.89-5.212 10.372a1.996 1.996 0 0 0 0 3.193c3.313 2.481 5.212 6.26 5.212 10.37 0 7.149-5.817 12.965-12.965 12.965h-4.013v34.5h283.8V344z" opacity="1" data-original="#05e39c" class=""></path><path fill="#0ed290" d="M169.5 304.991h-50.966c-8.9 0-17.25 2.336-24.489 6.412v60.862h4.013c7.148 0 12.965 5.817 12.965 12.965 0 4.11-1.899 7.891-5.212 10.372a1.996 1.996 0 0 0 0 3.192c3.313 2.481 5.212 6.26 5.212 10.371s-1.899 7.889-5.212 10.371a1.995 1.995 0 0 0 0 3.192c3.313 2.482 5.212 6.263 5.212 10.372s-1.899 7.89-5.212 10.372a1.996 1.996 0 0 0 0 3.193c3.313 2.481 5.212 6.26 5.212 10.37 0 7.149-5.817 12.965-12.965 12.965h-4.013v34.5H129.5c-5.523 0-10-4.477-10-10V354.991c0-27.614 22.386-50 50-50z" opacity="1" data-original="#0ed290" class=""></path><path fill="#ffbd86" d="M273.534 280.513a84.813 84.813 0 0 1-16.598 1.651h-20.804c-5.684 0-11.229-.58-16.598-1.651v24.478h-25l30.353 52.539c9.624 16.659 33.67 16.659 43.294 0l30.353-52.539h-25z" opacity="1" data-original="#ffbd86"></path><path fill="#f6a96c" d="M245.853 357.53 215.5 304.991h-20.967l30.353 52.539c6.863 11.88 21.059 15.281 32.13 10.216-4.452-2.037-8.402-5.437-11.163-10.216z" opacity="1" data-original="#f6a96c"></path><g fill="#ffbd86"><path d="M354.034 153.335H341.42v44.344a84.313 84.313 0 0 1-4.373 26.82h16.986c16.568 0 30-13.431 30-30v-11.165c.001-16.567-13.431-29.999-29.999-29.999zM151.647 197.68v-44.344h-12.614c-16.569 0-30 13.431-30 30V194.5c0 16.569 13.431 30 30 30h16.986a84.373 84.373 0 0 1-4.372-26.82z" fill="#ffbd86" opacity="1" data-original="#ffbd86"></path></g><path fill="#fed2a4" d="M151.647 151.5v46.18c0 46.659 37.825 84.484 84.484 84.484h20.804c46.659 0 84.484-37.825 84.484-84.484V151.5c0-19.33-15.67-35-35-35H186.647c-19.33 0-35 15.67-35 35z" opacity="1" data-original="#fed2a4"></path><path fill="#ffbd86" d="M182.728 197.68V151.5c0-19.33 15.67-35 35-35h-31.08c-19.33 0-35 15.67-35 35v46.18c0 46.659 37.825 84.484 84.484 84.484h20.804c1.727 0 3.437-.068 5.138-.17-44.265-2.658-79.346-39.382-79.346-84.314z" opacity="1" data-original="#ffbd86"></path><path fill="#8ac9fe" d="M339.314 216.393h-44.263c-10.332-12.227-28.196-20.315-48.517-20.315s-38.186 8.088-48.517 20.315h-44.263c8.518 37.649 42.153 65.771 82.378 65.771h20.804c40.225 0 73.86-28.121 82.378-65.771z" opacity="1" data-original="#8ac9fe"></path><path fill="#60b7ff" d="M236.132 282.164h20.804c1.727 0 3.437-.068 5.138-.17-37.926-2.277-69.088-29.571-77.242-65.601h-31.079c8.518 37.65 42.153 65.771 82.379 65.771z" opacity="1" data-original="#60b7ff"></path><g fill="#fd8087"><path d="m66.381 372.264 27.664.001V242.5a5 5 0 0 0-5-5H66.133a5 5 0 0 0-5 5v130.396c1.684-.41 3.44-.632 5.248-.632zM66.381 470c-1.808 0-3.564-.222-5.248-.631V499.5a5 5 0 0 0 5 5h27.911V470z" fill="#fd8087" opacity="1" data-original="#fd8087"></path></g><path fill="#fe646f" d="M78.589 242.5a5 5 0 0 1 5-5H66.133a5 5 0 0 0-5 5V333h17.455v-90.5zM78.589 499.5V470H66.381c-1.808 0-3.564-.222-5.248-.631V499.5a5 5 0 0 0 5 5h17.455a5 5 0 0 1-4.999-5z" opacity="1" data-original="#fe646f"></path><path fill="#554e56" d="m66.381 372.264 27.664.001V333H61.133v39.896c1.684-.41 3.44-.632 5.248-.632z" opacity="1" data-original="#554e56"></path><path fill="#433f43" d="M66.381 372.264h12.208V333H61.133v39.896c1.684-.41 3.44-.632 5.248-.632z" opacity="1" data-original="#433f43"></path><path fill="#ffbd86" d="M66.381 372.264c-12.256 0-22.226 9.971-22.226 22.226v53.284c0 12.256 9.97 22.226 22.226 22.226h31.676c7.148 0 12.965-5.816 12.965-12.965 0-4.11-1.9-7.889-5.212-10.37a1.995 1.995 0 0 1 0-3.192c3.313-2.482 5.212-6.263 5.212-10.372s-1.9-7.89-5.212-10.372a1.996 1.996 0 0 1 0-3.191c3.313-2.481 5.212-6.26 5.212-10.371s-1.9-7.89-5.212-10.371a1.993 1.993 0 0 1 0-3.192c3.313-2.482 5.212-6.262 5.212-10.372 0-7.148-5.817-12.965-12.965-12.965z" opacity="1" data-original="#ffbd86"></path><path fill="#f6a96c" d="M71.5 447.774V394.49c0-12.24 9.945-22.2 22.18-22.225l-27.299-.001c-12.256 0-22.226 9.971-22.226 22.226v53.284c0 12.256 9.97 22.226 22.226 22.226h27.345C81.47 470 71.5 460.03 71.5 447.774z" opacity="1" data-original="#f6a96c"></path><path fill="#b5adb6" d="M388.344 284h25v34h-25z" opacity="1" data-original="#b5adb6"></path><path fill="#26a6fe" d="M423.844 323a5 5 0 0 0-5-5h-36a5 5 0 0 0-5 5v21h46z" opacity="1" data-original="#26a6fe"></path><path fill="#0593fc" d="M398.5 323a5 5 0 0 1 5-5h-20.656a5 5 0 0 0-5 5v21H398.5z" opacity="1" data-original="#0593fc" class=""></path><path fill="#8ac9fe" d="M462.844 504.5h-85V344h60c16.569 0 30 13.431 30 30v125.5a5 5 0 0 1-5 5z" opacity="1" data-original="#8ac9fe"></path><path fill="#60b7ff" d="M377.844 344H408.5v160.5h-30.656z" opacity="1" data-original="#60b7ff"></path><path fill="#26a6fe" d="M377.844 504.5h85a5 5 0 0 0 5-5V465h-90z" opacity="1" data-original="#26a6fe"></path><path fill="#0593fc" d="M377.844 465H408.5v39.5h-30.656z" opacity="1" data-original="#0593fc" class=""></path><path fill="#26a6fe" d="M449.844 284h-65c-6.075 0-11-4.925-11-11v-6c0-6.075 4.925-11 11-11h65a3 3 0 0 1 3 3v22a3 3 0 0 1-3 3z" opacity="1" data-original="#26a6fe"></path><path fill="#0593fc" d="M404.5 273v-6c0-6.075 4.925-11 11-11h-30.656c-6.075 0-11 4.925-11 11v6c0 6.075 4.925 11 11 11H415.5c-6.075 0-11-4.925-11-11z" opacity="1" data-original="#0593fc" class=""></path><path d="M201.533 183.835a7.5 7.5 0 0 0 7.5-7.5v-16.183c0-4.142-3.357-7.5-7.5-7.5s-7.5 3.358-7.5 7.5v16.183a7.5 7.5 0 0 0 7.5 7.5zM291.533 183.835a7.5 7.5 0 0 0 7.5-7.5v-16.183c0-4.142-3.357-7.5-7.5-7.5s-7.5 3.358-7.5 7.5v16.183a7.5 7.5 0 0 0 7.5 7.5z" fill="#000000" opacity="1" data-original="#000000" class=""></path><path d="M467.845 402.5a7.5 7.5 0 0 0 7.5-7.5v-21c0-20.678-16.822-37.5-37.5-37.5h-6.5V323c0-6.21-4.557-11.363-10.5-12.325V291.5h.893l25.803 25.803c1.465 1.464 3.385 2.197 5.304 2.197s3.839-.732 5.304-2.197a7.5 7.5 0 0 0 0-10.606L442.952 291.5h6.893c5.79 0 10.5-4.71 10.5-10.5v-22c0-5.79-4.71-10.5-10.5-10.5h-65c-10.201 0-18.5 8.299-18.5 18.5v6c0 8.827 6.218 16.218 14.5 18.052v6.805a57.195 57.195 0 0 0-6.312-.366h-93.499v-11.035c27.889-7.58 50.553-27.98 61.239-54.456h11.76c20.678 0 37.5-16.822 37.5-37.5v-11.165a37.23 37.23 0 0 0-4.735-18.206 76.935 76.935 0 0 0 7.235-32.629v-25c0-21.269-6.273-41.873-18.143-59.584a7.5 7.5 0 0 0-12.461 8.351c10.208 15.232 15.604 32.949 15.604 51.233v25c0 7.08-1.202 13.879-3.383 20.228a38.124 38.124 0 0 0-1.73-1.163v-.065c0-32.908-23.677-60.375-54.887-66.3V67.999c0-4.142-3.357-7.5-7.5-7.5s-7.5 3.358-7.5 7.5V84h-25V67.999c0-4.142-3.357-7.5-7.5-7.5s-7.5 3.358-7.5 7.5V84h-35V67.999c0-4.142-3.357-7.5-7.5-7.5s-7.5 3.358-7.5 7.5V84h-25V67.999c0-4.142-3.357-7.5-7.5-7.5s-7.5 3.358-7.5 7.5V85.2c-31.21 5.926-54.887 33.392-54.887 66.3v.065c-.589.37-1.163.762-1.73 1.163a62.134 62.134 0 0 1-3.383-20.228v-25c0-51.005 41.495-92.5 92.5-92.5h80c19.684 0 38.517 6.18 54.464 17.871a7.5 7.5 0 0 0 10.483-1.614 7.5 7.5 0 0 0-1.614-10.483C331.329 7.184 309.429 0 286.533 0h-80c-59.275 0-107.5 48.224-107.5 107.5v25a76.947 76.947 0 0 0 7.235 32.629 37.23 37.23 0 0 0-4.735 18.206V194.5c0 20.678 16.822 37.5 37.5 37.5h11.761c10.686 26.476 33.35 46.877 61.24 54.456v11.034h-93.501c-5.916 0-11.615.921-16.988 2.59V293c0-4.142-3.357-7.5-7.5-7.5s-7.5 3.358-7.5 7.5v32.5H68.633V245h17.912v13c0 4.142 3.357 7.5 7.5 7.5s7.5-3.358 7.5-7.5v-15.5c0-6.893-5.607-12.5-12.5-12.5H66.133c-6.893 0-12.5 5.607-12.5 12.5v125.142c-10.029 4.781-16.978 15.017-16.978 26.848v53.284c0 11.83 6.949 22.066 16.978 26.848V499.5c0 6.893 5.607 12.5 12.5 12.5h396.712c6.893 0 12.5-5.607 12.5-12.5V430c0-4.142-3.357-7.5-7.5-7.5s-7.5 3.358-7.5 7.5v27.5h-75v-106h52.5c12.406 0 22.5 10.093 22.5 22.5v21a7.5 7.5 0 0 0 7.5 7.5zm-91.312-219.165V194.5c0 12.407-10.094 22.5-22.5 22.5h-7.161a92.015 92.015 0 0 0 2.048-19.32v-36.844h5.113c12.406-.001 22.5 10.093 22.5 22.499zM139.033 217c-12.406 0-22.5-10.093-22.5-22.5v-11.165c0-12.407 10.094-22.5 22.5-22.5h5.114v36.844c0 6.626.71 13.088 2.048 19.32h-7.162zm5.503-71.165h-5.503c-1.562 0-3.099.107-4.612.294 2.7-26.434 25.09-47.129 52.225-47.129H306.42c27.135 0 49.525 20.695 52.225 47.129a37.752 37.752 0 0 0-4.612-.294h-5.502C345.752 125.071 327.933 109 306.42 109H186.647c-21.513 0-39.331 16.071-42.111 36.835zm14.611 51.845V151.5c0-15.164 12.337-27.5 27.5-27.5h16.438c3.228 15.122 16.688 26.5 32.759 26.5 4.143 0 7.5-3.358 7.5-7.5s-3.357-7.5-7.5-7.5c-7.724 0-14.349-4.761-17.115-11.5h87.69c15.163 0 27.5 12.336 27.5 27.5v46.18c0 3.809-.289 7.551-.826 11.213h-34.717c-10.802-11.2-26.799-18.371-44.344-19.972v-17.585c0-4.142-3.357-7.5-7.5-7.5s-7.5 3.358-7.5 7.5v17.585c-17.544 1.601-33.541 8.772-44.343 19.972h-34.717a77.366 77.366 0 0 1-.825-11.213zm4.602 26.213h34.268a7.5 7.5 0 0 0 5.729-2.66c9.341-11.055 25.337-17.655 42.788-17.655 17.452 0 33.447 6.6 42.789 17.655a7.5 7.5 0 0 0 5.729 2.66h34.268c-10.746 29.582-39.135 50.771-72.383 50.771h-20.804c-33.25 0-61.638-21.189-72.384-50.771zM68.633 340.5h17.912v24.265l-17.912-.001zM86.545 497H68.633v-19.5h17.912zm-20.164-34.5c-8.12 0-14.726-6.606-14.726-14.726V394.49c0-8.12 6.605-14.726 14.726-14.726l31.677.001a5.47 5.47 0 0 1 5.465 5.464c0 1.751-.784 3.303-2.216 4.375a9.544 9.544 0 0 0-3.795 7.593 9.54 9.54 0 0 0 3.803 7.599c1.424 1.066 2.208 2.618 2.208 4.368s-.784 3.301-2.204 4.365a9.537 9.537 0 0 0-3.807 7.602 9.547 9.547 0 0 0 3.802 7.598c1.425 1.067 2.209 2.62 2.209 4.37s-.784 3.303-2.216 4.375a9.544 9.544 0 0 0-3.795 7.593 9.542 9.542 0 0 0 3.803 7.6c1.424 1.066 2.208 2.617 2.208 4.367a5.47 5.47 0 0 1-5.465 5.465H66.381zM239.033 497H101.545v-19.82c9.625-1.663 16.978-10.052 16.978-20.146 0-4.387-1.366-8.532-3.861-11.967 2.495-3.435 3.861-7.582 3.861-11.968 0-4.388-1.366-8.535-3.86-11.968 2.494-3.435 3.86-7.581 3.86-11.966 0-4.387-1.366-8.533-3.861-11.968 2.495-3.435 3.861-7.581 3.861-11.968 0-10.093-7.352-18.482-16.978-20.145V316.05a42.172 42.172 0 0 1 16.988-3.561h71.671l28.188 48.792c4.589 7.943 12.015 13.369 20.641 15.372zm-7.652-143.222-23.854-41.288h12.007a7.5 7.5 0 0 0 7.5-7.5V289.2c2.995.296 6.026.463 9.098.463h20.804c3.072 0 6.104-.168 9.099-.464v15.79a7.5 7.5 0 0 0 7.5 7.5h12.006l-23.854 41.288c-3.164 5.477-8.828 8.746-15.152 8.746-6.326.001-11.99-3.268-15.154-8.745zM370.345 323v174H254.033V376.655c8.625-2.003 16.052-7.43 20.642-15.373l28.188-48.792h71.67c.516 0 1.029.014 1.54.033-3.44 2.225-5.728 6.082-5.728 10.477zm90 149.5V497h-75v-24.5zm-75.5-196c-1.93 0-3.5-1.57-3.5-3.5v-6c0-1.93 1.57-3.5 3.5-3.5h60.5v13zm21 15v19h-10v-19zm10.5 45h-31v-11h31z" fill="#000000" opacity="1" data-original="#000000" class=""></path><path d="M185.5 411.5h-36.958c-4.143 0-7.5 3.358-7.5 7.5s3.357 7.5 7.5 7.5H185.5c4.143 0 7.5-3.358 7.5-7.5s-3.357-7.5-7.5-7.5zM185.5 437.5h-36.958c-4.143 0-7.5 3.358-7.5 7.5s3.357 7.5 7.5 7.5H185.5c4.143 0 7.5-3.358 7.5-7.5s-3.357-7.5-7.5-7.5z" fill="#000000" opacity="1" data-original="#000000" class=""></path></g></svg>